<svg xmlns="http://www.w3.org/2000/svg" xmlns:xlink="http://www.w3.org/1999/xlink" width="150" zoomAndPan="magnify" viewBox="0 0 112.5 37.5" height="50" preserveAspectRatio="xMidYMid meet" version="1.2"><defs><clipPath id="0594e0ed6a"><path d="M 0.492188 0 L 111.511719 0 L 111.511719 37.007812 L 0.492188 37.007812 Z M 0.492188 0 "/></clipPath></defs><g id="589b0f7f0f"><g clip-rule="nonzero" clip-path="url(#0594e0ed6a)"><path style=" stroke:none;fill-rule:nonzero;fill:#ffffff;fill-opacity:1;" d="M 0.492188 0 L 111.511719 0 L 111.511719 37.007812 L 0.492188 37.007812 Z M 0.492188 0 "/><path style=" stroke:none;fill-rule:nonzero;fill:#ffffff;fill-opacity:1;" d="M 0.492188 0 L 111.511719 0 L 111.511719 37.007812 L 0.492188 37.007812 Z M 0.492188 0 "/></g><g style="fill:#004aad;fill-opacity:1;"><g transform="translate(4.517886, 24.423056)"><path style="stroke:none" d="M 6.375 0.265625 C 4.113281 0.265625 2.257812 -0.539062 0.8125 -2.15625 L 2.84375 -4.171875 C 3.84375 -3.015625 5.085938 -2.4375 6.578125 -2.4375 C 7.367188 -2.4375 7.972656 -2.601562 8.390625 -2.9375 C 8.804688 -3.28125 9.015625 -3.75 9.015625 -4.34375 C 9.015625 -4.8125 8.875 -5.1875 8.59375 -5.46875 C 8.320312 -5.75 7.851562 -5.9375 7.1875 -6.03125 L 5.75 -6.234375 C 2.75 -6.648438 1.25 -8.109375 1.25 -10.609375 C 1.25 -11.484375 1.46875 -12.253906 1.90625 -12.921875 C 2.351562 -13.597656 2.988281 -14.117188 3.8125 -14.484375 C 4.644531 -14.859375 5.617188 -15.046875 6.734375 -15.046875 C 8.890625 -15.046875 10.585938 -14.34375 11.828125 -12.9375 L 9.78125 -10.90625 C 9.394531 -11.363281 8.941406 -11.71875 8.421875 -11.96875 C 7.898438 -12.21875 7.28125 -12.34375 6.5625 -12.34375 C 5.820312 -12.34375 5.257812 -12.207031 4.875 -11.9375 C 4.5 -11.664062 4.3125 -11.285156 4.3125 -10.796875 C 4.3125 -10.285156 4.457031 -9.90625 4.75 -9.65625 C 5.039062 -9.40625 5.519531 -9.226562 6.1875 -9.125 L 7.625 -8.875 C 9.144531 -8.601562 10.265625 -8.117188 10.984375 -7.421875 C 11.710938 -6.722656 12.078125 -5.753906 12.078125 -4.515625 C 12.078125 -3.578125 11.851562 -2.75 11.40625 -2.03125 C 10.957031 -1.3125 10.300781 -0.75 9.4375 -0.34375 C 8.582031 0.0625 7.5625 0.265625 6.375 0.265625 Z M 6.375 0.265625 "/></g></g><g style="fill:#004aad;fill-opacity:1;"><g transform="translate(17.627496, 24.423056)"><path style="stroke:none" d="M 4.5625 0 L 1.671875 0 L 1.671875 -14.78125 L 4.921875 -14.78125 L 8.65625 -7.71875 L 8.71875 -7.71875 L 12.390625 -14.78125 L 15.65625 -14.78125 L 15.65625 0 L 12.765625 0 L 12.765625 -10.03125 L 12.703125 -10.03125 L 11.625 -7.828125 L 8.65625 -2.4375 L 5.75 -7.8125 L 4.625 -10.140625 L 4.5625 -10.140625 Z M 4.5625 0 "/></g></g><g style="fill:#004aad;fill-opacity:1;"><g transform="translate(34.952341, 24.423056)"><path style="stroke:none" d="M 11.796875 -14.78125 L 11.796875 -12.0625 L 7.703125 -12.0625 L 7.703125 0 L 4.640625 0 L 4.640625 -12.0625 L 0.546875 -12.0625 L 0.546875 -14.78125 Z M 11.796875 -14.78125 "/></g></g><g style="fill:#004aad;fill-opacity:1;"><g transform="translate(47.295538, 24.423056)"><path style="stroke:none" d="M 4.6875 0 L 1.609375 0 L 1.609375 -14.78125 L 8.515625 -14.78125 C 9.410156 -14.78125 10.191406 -14.582031 10.859375 -14.1875 C 11.535156 -13.800781 12.050781 -13.253906 12.40625 -12.546875 C 12.769531 -11.847656 12.953125 -11.039062 12.953125 -10.125 C 12.953125 -9.195312 12.769531 -8.382812 12.40625 -7.6875 C 12.050781 -6.988281 11.535156 -6.441406 10.859375 -6.046875 C 10.191406 -5.660156 9.410156 -5.46875 8.515625 -5.46875 L 4.6875 -5.46875 Z M 4.6875 -12.125 L 4.6875 -8.125 L 8.171875 -8.125 C 8.671875 -8.125 9.0625 -8.253906 9.34375 -8.515625 C 9.632812 -8.785156 9.78125 -9.164062 9.78125 -9.65625 L 9.78125 -10.59375 C 9.78125 -11.09375 9.632812 -11.472656 9.34375 -11.734375 C 9.0625 -11.992188 8.671875 -12.125 8.171875 -12.125 Z M 4.6875 -12.125 "/></g></g><g style="fill:#004aad;fill-opacity:1;"><g transform="translate(61.080127, 24.423056)"><path style="stroke:none" d=""/></g></g><g style="fill:#004aad;fill-opacity:1;"><g transform="translate(66.081944, 24.423056)"><path style="stroke:none" d="M 11.796875 -14.78125 L 11.796875 -12.0625 L 7.703125 -12.0625 L 7.703125 0 L 4.640625 0 L 4.640625 -12.0625 L 0.546875 -12.0625 L 0.546875 -14.78125 Z M 11.796875 -14.78125 "/></g></g><g style="fill:#004aad;fill-opacity:1;"><g transform="translate(77.11418, 24.423056)"><path style="stroke:none" d="M 6.078125 0.265625 C 4.421875 0.265625 3.125 -0.253906 2.1875 -1.296875 C 1.25 -2.335938 0.78125 -3.753906 0.78125 -5.546875 C 0.78125 -7.316406 1.238281 -8.726562 2.15625 -9.78125 C 3.070312 -10.832031 4.34375 -11.359375 5.96875 -11.359375 C 7.113281 -11.359375 8.066406 -11.101562 8.828125 -10.59375 C 9.597656 -10.09375 10.164062 -9.414062 10.53125 -8.5625 C 10.894531 -7.707031 11.078125 -6.753906 11.078125 -5.703125 L 11.078125 -4.796875 L 3.875 -4.796875 L 3.875 -4.59375 C 3.875 -3.800781 4.082031 -3.179688 4.5 -2.734375 C 4.925781 -2.296875 5.554688 -2.078125 6.390625 -2.078125 C 6.992188 -2.078125 7.507812 -2.195312 7.9375 -2.4375 C 8.363281 -2.675781 8.773438 -3.023438 9.171875 -3.484375 L 10.6875 -1.671875 C 10.207031 -1.066406 9.566406 -0.59375 8.765625 -0.25 C 7.960938 0.09375 7.066406 0.265625 6.078125 0.265625 Z M 3.875 -6.5625 L 7.984375 -6.5625 L 7.984375 -6.75 C 7.984375 -7.488281 7.8125 -8.070312 7.46875 -8.5 C 7.125 -8.9375 6.640625 -9.15625 6.015625 -9.15625 C 5.367188 -9.15625 4.847656 -8.929688 4.453125 -8.484375 C 4.066406 -8.046875 3.875 -7.460938 3.875 -6.734375 Z M 3.875 -6.5625 "/></g></g><g style="fill:#004aad;fill-opacity:1;"><g transform="translate(88.973327, 24.423056)"><path style="stroke:none" d="M 5.203125 0.265625 C 4.179688 0.265625 3.300781 0.0976562 2.5625 -0.234375 C 1.820312 -0.578125 1.15625 -1.082031 0.5625 -1.75 L 2.359375 -3.53125 C 3.203125 -2.550781 4.191406 -2.0625 5.328125 -2.0625 C 6.472656 -2.0625 7.046875 -2.441406 7.046875 -3.203125 C 7.046875 -3.503906 6.945312 -3.738281 6.75 -3.90625 C 6.550781 -4.070312 6.242188 -4.179688 5.828125 -4.234375 L 4.65625 -4.375 C 3.414062 -4.539062 2.488281 -4.898438 1.875 -5.453125 C 1.257812 -6.003906 0.953125 -6.773438 0.953125 -7.765625 C 0.953125 -8.472656 1.125 -9.097656 1.46875 -9.640625 C 1.820312 -10.179688 2.320312 -10.601562 2.96875 -10.90625 C 3.613281 -11.207031 4.359375 -11.359375 5.203125 -11.359375 C 6.273438 -11.359375 7.140625 -11.21875 7.796875 -10.9375 C 8.453125 -10.65625 9.070312 -10.21875 9.65625 -9.625 L 7.953125 -7.859375 C 7.585938 -8.222656 7.179688 -8.507812 6.734375 -8.71875 C 6.296875 -8.925781 5.835938 -9.03125 5.359375 -9.03125 C 4.835938 -9.03125 4.445312 -8.941406 4.1875 -8.765625 C 3.9375 -8.585938 3.8125 -8.335938 3.8125 -8.015625 C 3.8125 -7.691406 3.90625 -7.441406 4.09375 -7.265625 C 4.28125 -7.085938 4.601562 -6.96875 5.0625 -6.90625 L 6.28125 -6.734375 C 8.695312 -6.410156 9.90625 -5.300781 9.90625 -3.40625 C 9.90625 -2.695312 9.707031 -2.066406 9.3125 -1.515625 C 8.925781 -0.960938 8.375 -0.523438 7.65625 -0.203125 C 6.945312 0.109375 6.128906 0.265625 5.203125 0.265625 Z M 5.203125 0.265625 "/></g></g><g style="fill:#004aad;fill-opacity:1;"><g transform="translate(99.440842, 24.423056)"><path style="stroke:none" d="M 5.21875 0 C 4.195312 0 3.421875 -0.265625 2.890625 -0.796875 C 2.359375 -1.328125 2.09375 -2.09375 2.09375 -3.09375 L 2.09375 -8.78125 L 0.5 -8.78125 L 0.5 -11.09375 L 1.3125 -11.09375 C 1.71875 -11.09375 2 -11.1875 2.15625 -11.375 C 2.320312 -11.5625 2.40625 -11.859375 2.40625 -12.265625 L 2.40625 -14.09375 L 5.078125 -14.09375 L 5.078125 -11.09375 L 7.28125 -11.09375 L 7.28125 -8.78125 L 5.078125 -8.78125 L 5.078125 -2.3125 L 7.125 -2.3125 L 7.125 0 Z M 5.21875 0 "/></g></g></g></svg>